<?xml version="1.0" encoding="UTF-8"?>
<svg version="1.1" xmlns="http://www.w3.org/2000/svg" width="1563" height="1563">
<path d="M0 0 C1.01673766 0.00092179 2.03347532 0.00184359 3.08102322 0.00279331 C4.24355114 0.00141865 5.40607906 0.00004398 6.60383511 -0.00137234 C7.89064175 0.00222294 9.17744839 0.00581821 10.50324917 0.00952244 C11.86298527 0.00980431 13.22272153 0.00964658 14.58245754 0.00907993 C18.28477281 0.00879196 21.98705595 0.01468871 25.68936372 0.02165389 C29.55444283 0.0278874 33.41952261 0.02849123 37.28460598 0.0296793 C44.60860185 0.03279262 51.93258287 0.04100602 59.25657219 0.05102879 C67.5925895 0.06218989 75.92860751 0.06770037 84.26463044 0.07272422 C101.4170139 0.08318864 118.5693829 0.1007881 135.72175503 0.12304783 C134.37123735 3.60022909 132.92015412 6.5679496 130.83503628 9.66601658 C129.94038662 11.00225071 129.94038662 11.00225071 129.02766323 12.36547947 C128.36983852 13.33735203 127.71201382 14.30922459 127.03425503 15.31054783 C125.98660976 16.86987034 125.98660976 16.86987034 124.91779995 18.46069431 C122.95214851 21.38508558 120.97990923 24.30497795 119.00593472 27.22375584 C117.68758516 29.1735848 116.3705265 31.1242802 115.05378628 33.07519627 C108.76320372 42.39442516 102.45978123 51.70492475 96.15199184 61.01251316 C93.89745962 64.33942264 91.64360634 67.66679196 89.38972378 70.99414158 C86.80419681 74.81098611 84.21859114 78.62777722 81.6326437 82.44433689 C72.29053528 96.23268357 62.95977403 110.02870226 53.62898159 123.82470798 C50.26194317 128.80297157 46.89452114 133.78097561 43.52697659 138.75889683 C41.13869543 142.28926813 38.75052237 145.81971241 36.36262417 149.35034275 C30.98723887 157.29783797 25.60942635 165.24367761 20.2268362 173.18629551 C17.78369574 176.79231256 15.34336281 180.40016601 12.90949917 184.01245213 C11.97458876 185.3996228 11.03961242 186.78674905 10.10456753 188.17382908 C9.65107433 188.8466341 9.19758114 189.51943913 8.73034573 190.21263218 C6.13952714 194.04858618 3.52228608 197.86423057 0.874053 201.66076756 C-0.31152057 203.3628443 -1.48966783 205.06979188 -2.66520786 206.77880955 C-4.07415377 208.82321203 -5.49700958 210.85812603 -6.93620396 212.88134861 C-7.54536655 213.77192966 -8.15452915 214.66251072 -8.78215122 215.58007908 C-9.31654819 216.34296238 -9.85094517 217.10584568 -10.40153599 217.89184666 C-11.5055129 220.09223683 -11.5055129 220.09223683 -10.77922153 222.38525486 C-8.66398548 226.24346193 -6.24731461 229.84470748 -3.75871372 233.47070408 C-3.19715076 234.29775349 -2.63558781 235.12480289 -2.05700779 235.97691441 C-0.8379067 237.77196157 0.3831862 239.56565726 1.60603237 241.35815525 C4.92269244 246.22144219 8.22288778 251.09586512 11.52253628 255.97070408 C12.5466914 257.48321247 12.5466914 257.48321247 13.59153652 259.02627659 C20.55908284 269.33241104 27.3967806 279.72219793 34.22175503 290.12304783 C43.79856547 304.70530375 53.45552594 319.22941741 63.22175503 333.68554783 C63.81988003 334.5709827 64.41800503 335.45641758 65.03425503 336.36868382 C69.26001671 342.62244397 73.4903436 348.87310952 77.72175503 355.12304783 C82.55826474 362.26673684 87.39250967 369.41194552 92.22175503 376.56054783 C92.81123928 377.43294102 93.40072353 378.30533421 94.00807095 379.20416355 C105.00651525 395.49063305 115.84256318 411.88220858 126.62214565 428.31420994 C127.21119686 429.21139744 127.80024807 430.10858494 128.40714931 431.03295994 C129.50623184 432.707519 130.60414769 434.38284463 131.70066738 436.05908298 C132.18860775 436.80263035 132.67654812 437.54617771 133.17927456 438.31225681 C133.60032467 438.95533283 134.02137478 439.59840885 134.45518398 440.26097202 C135.38049267 441.62133387 136.36474946 442.94211787 137.38066006 444.23622227 C138.72175503 446.12304783 138.72175503 446.12304783 138.72175503 448.12304783 C121.10391327 449.15918763 103.49575139 449.93043103 85.85425949 450.40278339 C77.65791221 450.62816138 69.48082271 450.93502345 61.2967062 451.44238377 C6.96268764 454.74358619 6.96268764 454.74358619 -5.97093296 444.00879002 C-14.78925914 435.18260309 -20.37860796 424.19313501 -25.28043461 412.8461256 C-29.64744435 402.75883987 -35.66600635 394.04986333 -42.01599789 385.12175846 C-45.06981382 380.79171734 -48.01444585 376.38789316 -50.96965122 371.99023533 C-51.97332233 370.50387577 -51.97332233 370.50387577 -52.99726963 368.98748875 C-61.1616971 356.86189663 -69.1874342 344.6442967 -77.21183872 332.4257822 C-78.33681073 330.71287319 -79.4618104 328.99998235 -80.58683872 327.28711033 C-81.13835102 326.44731632 -81.68986332 325.60752232 -82.25808811 324.74228001 C-86.22951201 318.70143832 -90.23163114 312.68162929 -94.24699497 306.66992283 C-98.94079773 299.6424665 -103.60987166 292.59953604 -108.25090122 285.53711033 C-108.82765598 284.65949039 -109.40441074 283.78187046 -109.99864292 282.87765598 C-111.17673662 281.08476699 -112.35478596 279.29184885 -113.53279209 277.49890232 C-125.95552781 258.59733762 -138.51658826 239.79740026 -151.27824497 221.12304783 C-147.86018538 214.68899685 -144.05454506 208.66790043 -139.90324497 202.68554783 C-138.56134341 200.7342444 -137.22025194 198.78238373 -135.87980747 196.83007908 C-135.14665318 195.76354099 -134.41349888 194.69700291 -133.65812778 193.59814548 C-129.16405679 187.0463471 -124.72637222 180.45607138 -120.27824497 173.87304783 C-119.29017806 172.4115058 -118.30205912 170.94999894 -117.3138895 169.48852634 C-115.30312771 166.51460986 -113.29256347 163.54055999 -111.28215122 160.5664072 C-106.9258115 154.12209683 -102.56696285 147.67948387 -98.20823765 141.23678684 C-96.29224013 138.40466136 -94.37638523 135.57243942 -92.46052647 132.74022007 C-88.64630229 127.10165236 -84.8318874 121.4632138 -81.01707554 115.82504368 C-71.12544397 101.2055093 -61.23674827 86.58400339 -51.35539341 71.95752048 C-47.70461802 66.55369474 -44.05343399 61.15014509 -40.40226841 55.74658298 C-38.3064094 52.64480025 -36.2107295 49.5428966 -34.11515903 46.44091892 C-31.53448237 42.6209995 -28.95310087 38.80155719 -26.37126255 34.98242283 C-25.41612053 33.5693273 -24.46119369 32.15608631 -23.50651646 30.74267673 C-18.42080062 23.21350853 -13.31594577 15.69782453 -8.17668247 8.20507908 C-7.70139103 7.51081318 -7.22609959 6.81654728 -6.73640537 6.10124302 C-2.64141366 0.14266254 -2.64141366 0.14266254 0 0 Z " fill="#FFFFFF" transform="translate(949.278244972229,557.8769521713257)"/>
<path d="M0 0 C9.62639768 8.25119801 18.94352562 16.78871714 28.19921875 25.44921875 C31.66211515 28.68796812 35.1391783 31.91095243 38.625 35.125 C39.15472412 35.61347412 39.68444824 36.10194824 40.23022461 36.60522461 C41.81983911 38.0704873 43.40984099 39.53532826 45 41 C52.49387168 47.9024934 59.96535112 54.827722 67.40917969 61.78417969 C74.94724626 68.83116361 74.94724626 68.83116361 82.58044147 75.77444839 C84.78382907 77.79322831 86.77719143 79.85466682 88.69152355 82.14760971 C93.84909931 88.04638773 98.3874387 91.573338 106.3467356 92.35449743 C111.25061273 92.58256078 116.13133742 92.53764156 121.03833008 92.45410156 C123.24713714 92.46058872 125.455934 92.47235522 127.66468811 92.4889679 C133.62748966 92.51899795 139.58771871 92.47566783 145.55023789 92.41865635 C151.79359775 92.37160177 158.03672837 92.39271039 164.28019714 92.40643311 C174.74840289 92.42033009 185.21580813 92.39259769 195.68383789 92.33251953 C206.4596267 92.2707903 217.23501402 92.2344738 228.01098633 92.23193359 C229.00949373 92.23168506 229.00949373 92.23168506 230.02817301 92.23143151 C233.36808682 92.23075566 236.70800024 92.23060219 240.04791415 92.23064089 C267.69917683 92.22943947 295.34903989 92.13397843 323 92 C323 121.7 323 151.4 323 182 C216.41 182 109.82 182 0 182 C0 121.94 0 61.88 0 0 Z " fill="#4B4BFF" transform="translate(1106,824)"/>
<path d="M0 0 C32.67 0 65.34 0 99 0 C99 104.61 99 209.22 99 317 C95.10864835 315.05432417 93.21762774 313.39826579 90.25 310.3125 C86.68611323 306.61640453 82.98339182 303.20650006 79.10595703 299.84985352 C75.58972401 296.76122639 72.2070761 293.53352119 68.8125 290.3125 C63.69148278 285.47257543 58.56100543 280.64528055 53.375 275.875 C48.7313222 271.60310688 44.10929858 267.30897268 39.5 263 C34.8474338 258.65119736 30.183951 254.31498245 25.5 250 C20.63255389 245.51421023 15.77965844 241.01307971 10.9375 236.5 C10.30585937 235.9121875 9.67421875 235.324375 9.0234375 234.71875 C8.42660156 234.161875 7.82976562 233.605 7.21484375 233.03125 C6.42775024 232.29745117 6.42775024 232.29745117 5.62475586 231.54882812 C4.82050171 230.7821582 4.82050171 230.7821582 4 230 C3.31641041 229.49493549 2.63282082 228.98987099 1.92851639 228.4695015 C-0.95344231 224.77909919 -0.54224984 221.49921309 -0.48101807 216.93914795 C-0.48443577 216.01284742 -0.48785347 215.08654688 -0.49137473 214.13217664 C-0.49797556 211.02107349 -0.47594085 207.91082866 -0.45410156 204.79980469 C-0.45297356 202.57264222 -0.45360601 200.34547826 -0.45587158 198.11831665 C-0.4570215 192.06489786 -0.4334669 186.01179467 -0.40557575 179.95844936 C-0.38060857 173.63501513 -0.37822379 167.31157406 -0.37347412 160.98809814 C-0.36244529 150.37221151 -0.33744287 139.75644985 -0.30175781 129.140625 C-0.26504063 118.20638602 -0.23677333 107.27217869 -0.21972656 96.33789062 C-0.21865457 95.65700693 -0.21758258 94.97612324 -0.21647811 94.2746067 C-0.2072267 88.35187977 -0.19861551 82.42915194 -0.19006729 76.50642395 C-0.15242991 51.00417349 -0.07274804 25.50223042 0 0 Z " fill="#FFFFFF" transform="translate(1106,558)"/>
<path d="M0 0 C12.705 -0.0825 25.41 -0.165 38.5 -0.25 C42.47869141 -0.28641602 46.45738281 -0.32283203 50.55664062 -0.36035156 C55.49902344 -0.37841797 55.49902344 -0.37841797 57.82897949 -0.3817749 C59.42082218 -0.38782833 61.01264916 -0.40170631 62.60437012 -0.42230225 C80.0262026 -0.63602221 94.62662255 2.12612331 109.25 12.25 C119.8844998 22.8844998 123.35015657 34.31039018 123.5 49 C123.38526794 61.24428778 121.54183788 71.69660067 113 81 C112.47535156 81.60328125 111.95070313 82.2065625 111.41015625 82.828125 C107.00237512 87.59889987 101.86535113 91.20062787 96 94 C95.01 94 94.02 94 93 94 C94.49458794 96.44095612 95.99553372 98.8776401 97.5 101.3125 C97.90992188 101.98345703 98.31984375 102.65441406 98.7421875 103.34570312 C101.89444412 108.43229904 105.33770967 113.24641452 108.88134766 118.06665039 C112.54271385 123.13594226 115.98340063 128.35076946 119.4375 133.5625 C120.15615234 134.64080078 120.87480469 135.71910156 121.61523438 136.83007812 C126.85901786 144.71803571 126.85901786 144.71803571 128 147 C122.59269451 147.27334724 117.18945701 147.47212791 111.77685547 147.60424805 C109.93922865 147.65934131 108.10207924 147.73424833 106.26611328 147.82983398 C91.12094184 148.59818641 91.12094184 148.59818641 86.24829102 144.92651367 C84.14278111 142.05962829 82.58390662 139.18223017 81 136 C79.67965816 133.99264171 78.3341207 132.00164628 76.96484375 130.02734375 C75.61999614 127.99898484 74.27755491 125.96902844 72.9375 123.9375 C70.9383358 120.91272794 68.93746189 117.89147071 66.89819336 114.89355469 C65 112 65 112 63.40063477 109.06738281 C60.36219622 103.79837685 60.36219622 103.79837685 55.10961914 101.12768555 C51.70174801 100.79023973 48.48742053 100.76786705 45.0625 100.875 C39.0915625 100.936875 39.0915625 100.936875 33 101 C33 116.18 33 131.36 33 147 C22.11 147 11.22 147 0 147 C0 98.49 0 49.98 0 0 Z M33 30 C33 43.53 33 57.06 33 71 C42.3740625 71.0928125 42.3740625 71.0928125 51.9375 71.1875 C54.86870728 71.22846802 54.86870728 71.22846802 57.85913086 71.27026367 C59.4360289 71.27903871 61.01293383 71.28668023 62.58984375 71.29296875 C63.78389832 71.3159906 63.78389832 71.3159906 65.0020752 71.33947754 C71.5907142 71.34249846 78.04124952 70.31661765 83.33984375 66.16796875 C88.3269002 59.98596968 90.70336554 55.15904024 90 47 C88.63647575 41.41807262 86.53133479 37.68829576 82 34 C77.32911639 31.33092365 73.33209368 29.86905164 67.96582031 29.88647461 C67.17449707 29.88659546 66.38317383 29.88671631 65.56787109 29.88684082 C64.74625488 29.89195679 63.92463867 29.89707275 63.078125 29.90234375 C61.9341626 29.90385437 61.9341626 29.90385437 60.76708984 29.90539551 C57.92804452 29.9106133 55.08902069 29.92457456 52.25 29.9375 C45.8975 29.958125 39.545 29.97875 33 30 Z " fill="#FFFFFF" transform="translate(293,704)"/>
<path d="M0 0 C17.89786298 -0.44501821 35.79428001 -0.77944236 53.69649029 -0.98443127 C62.01024105 -1.08217031 70.32054398 -1.21524061 78.63208008 -1.43334961 C85.8818337 -1.62350394 93.12909074 -1.74547648 100.3812688 -1.7876814 C104.21841843 -1.81233992 108.0484312 -1.86966298 111.88327599 -2.00887108 C135.10959657 -2.81955106 135.10959657 -2.81955106 141.51068497 1.81960678 C145.66954381 6.19817825 148.34053696 11.10105457 150.81327248 16.56873131 C152.73739424 20.51071202 155.32896312 23.92763693 157.9375 27.4375 C158.9287476 28.8299243 159.91736536 30.22422769 160.90234375 31.62109375 C161.40362793 32.32862793 161.90491211 33.03616211 162.42138672 33.76513672 C165.29509994 37.83348978 168.1464326 41.91750405 171 46 C177.30619932 55.01923994 183.64526045 64.01491038 190 73 C186.74662325 79.09340004 183.20173765 84.83807742 179.25 90.5 C178.09067419 92.17805967 176.93184531 93.85646273 175.7734375 95.53515625 C175.16081055 96.42090332 174.54818359 97.30665039 173.91699219 98.21923828 C170.54597224 103.10919207 167.21189534 108.02422528 163.875 112.9375 C163.16585449 113.98075439 162.45670898 115.02400879 161.72607422 116.09887695 C155.87131219 124.7129968 150.02458064 133.3325603 144.17800903 141.95223999 C136.47084738 153.31435651 128.74139971 164.66117799 121 176 C117.22649423 174.74216474 116.69780729 173.44274064 114.55859375 170.14453125 C113.89794922 169.13712891 113.23730469 168.12972656 112.55664062 167.09179688 C111.85732422 166.00962891 111.15800781 164.92746094 110.4375 163.8125 C108.98183987 161.5872104 107.5200159 159.36604964 106.05859375 157.14453125 C105.35460449 156.07283691 104.65061523 155.00114258 103.92529297 153.89697266 C101.69161924 150.53598198 99.3761284 147.26159163 97 144 C91.74550599 136.75731907 86.84197044 129.28939259 81.90039062 121.83105469 C77.80711079 115.6678114 73.63779004 109.58222809 69.2980957 103.59057617 C66.162373 99.25631056 63.19009724 94.83048859 60.2421875 90.3671875 C57.47623509 86.19404087 54.6425391 82.06733176 51.8125 77.9375 C51.25570557 77.12490723 50.69891113 76.31231445 50.12524414 75.47509766 C48.98261757 73.80813408 47.83979377 72.14130566 46.69677734 70.47460938 C44.00383739 66.54717925 41.31420156 62.61749049 38.625 58.6875 C38.09430908 57.91204834 37.56361816 57.13659668 37.0168457 56.33764648 C32.20650661 49.30648746 27.40790082 42.26735103 22.6105957 35.22729492 C17.82063701 28.1994098 13.02029547 21.17868705 8.2109375 14.1640625 C7.2412609 12.74858653 6.27320073 11.3320012 5.30712891 9.9140625 C4.46131597 8.67551685 3.60978457 7.44084891 2.75146484 6.2109375 C0 2.2193249 0 2.2193249 0 0 Z M48 26 C49.0932635 27.72936818 50.18804666 29.45777571 51.28344727 31.18579102 C51.89293716 32.14840347 52.50242706 33.11101593 53.13038635 34.10279846 C55.94640919 38.46658009 58.93402462 42.70158279 61.9375 46.9375 C66.29743261 53.12656371 70.60249285 59.33771257 74.7734375 65.65625 C77.82413327 70.25997427 80.94900513 74.81364322 84.0625 79.375 C84.70606445 80.31811035 85.34962891 81.2612207 86.01269531 82.23291016 C88.65851901 86.10897009 91.30556007 89.98419507 93.95410156 93.85839844 C102.38225408 106.18697192 110.74794543 118.55276685 119 131 C122.83044818 127.40475107 125.78508633 123.62257809 128.62890625 119.19921875 C129.50609399 117.85948388 130.38388194 116.52014185 131.26220703 115.18115234 C131.71202942 114.4921283 132.16185181 113.80310425 132.62530518 113.09320068 C134.87245879 109.6715369 137.16838564 106.28322035 139.46484375 102.89453125 C139.91566315 102.22839813 140.36648254 101.56226501 140.83096313 100.87594604 C141.74092987 99.53159525 142.65119746 98.18744804 143.56176758 96.84350586 C144.96223031 94.77599043 146.36101652 92.70734691 147.75976562 90.63867188 C148.66135801 89.30722373 149.56304696 87.97584096 150.46484375 86.64453125 C150.87733871 86.03414505 151.28983368 85.42375885 151.71482849 84.7948761 C153.34797369 82.38714171 154.98668361 80.0169783 156.78271484 77.72705078 C158.21685811 76.04190762 158.21685811 76.04190762 158.01171875 73.72265625 C156.5614754 69.8198778 154.27209081 66.77362641 151.8125 63.4375 C150.72193583 61.92760341 149.63212431 60.41716299 148.54296875 58.90625 C147.96724121 58.1121875 147.39151367 57.318125 146.79833984 56.5 C143.10226905 51.36182937 139.51053384 46.14973715 135.89770508 40.95288086 C135.34622803 40.16276611 134.79475098 39.37265137 134.2265625 38.55859375 C133.50847412 37.52690063 133.50847412 37.52690063 132.77587891 36.47436523 C132.18983887 35.65782471 131.60379883 34.84128418 131 34 C130.69502594 33.32764313 130.39005188 32.65528625 130.07583618 31.96255493 C128.6301211 29.28727835 127.47237525 27.80242107 125 26 C119.19347247 24.84739634 113.46601359 25.06854377 107.5703125 25.21875 C105.85255573 25.23368174 104.13476476 25.24506436 102.41696167 25.25305176 C97.90825374 25.28351369 93.40162671 25.36202149 88.89373779 25.45068359 C84.28881989 25.53270581 79.68356374 25.56909794 75.078125 25.609375 C66.05117191 25.69502468 57.02575937 25.83145674 48 26 Z " fill="#4B4BFF" transform="translate(647,558)"/>
<path d="M0 0 C36.63 0 73.26 0 111 0 C111 9.9 111 19.8 111 30 C85.26 30 59.52 30 33 30 C33 39.24 33 48.48 33 58 C55.77 58 78.54 58 102 58 C102 67.9 102 77.8 102 88 C79.23 88 56.46 88 33 88 C33 97.9 33 107.8 33 118 C59.07 118 85.14 118 112 118 C112 127.57 112 137.14 112 147 C75.04 147 38.08 147 0 147 C0 98.49 0 49.98 0 0 Z " fill="#FFFFFF" transform="translate(445,704)"/>
<path d="M0 0 C8.21975543 0.41859189 16.44080837 0.61821972 24.66861248 0.80302227 C41.55524387 1.18704515 58.42047726 1.83508198 75.29121292 2.66499567 C70.10617221 12.14158622 70.10617221 12.14158622 67.28364456 16.30073786 C66.48108985 17.4893844 66.48108985 17.4893844 65.66232193 18.70204401 C64.81540031 19.94440821 64.81540031 19.94440821 63.95136917 21.21187067 C63.34796203 22.10376093 62.7445549 22.99565119 62.1228627 23.91456842 C60.20330439 26.75042876 58.27873427 29.58284163 56.35371292 32.41499567 C53.84330256 36.1172432 51.3348449 39.82081215 48.82636917 43.52437067 C48.19010604 44.46300959 47.55384292 45.4016485 46.8982991 46.36873102 C43.4549033 51.45259267 40.01438644 56.53775487 36.6404866 61.66810846 C35.5498876 63.29226703 34.42666922 64.89488882 33.27567947 66.47682428 C29.45323569 71.85553148 26.64193202 77.00963804 24.08288658 83.07482004 C18.74697882 95.44565992 12.32913576 108.64146847 0.29121292 115.66499567 C-19.36701742 122.64888427 -43.13028134 119.69429336 -63.56163335 118.54608011 C-71.76636911 118.09310031 -79.97265142 117.87763812 -88.18683386 117.67793989 C-105.04207186 117.26304181 -121.87219787 116.56277095 -138.70878708 115.66499567 C-133.51794581 106.1797223 -133.51794581 106.1797223 -130.73295701 102.0768609 C-129.93914879 100.9013341 -129.93914879 100.9013341 -129.12930405 99.70205927 C-128.57158814 98.88416422 -128.01387223 98.06626917 -127.43925583 97.22358942 C-126.54968941 95.90907045 -126.54968941 95.90907045 -125.64215195 94.56799555 C-123.73015635 91.74391509 -121.81319391 88.9232442 -119.89628708 86.10249567 C-117.9036472 83.16133181 -115.91235833 80.21925645 -113.92115891 77.27711725 C-112.61617523 75.34906063 -111.31077935 73.42128293 -110.00496018 71.49379206 C-106.10391659 65.73426851 -102.20545897 59.97376973 -98.38255417 54.16194391 C-97.18868629 52.37964563 -95.96784987 50.61473151 -94.70637619 48.8796258 C-91.0165766 43.6944019 -88.28087812 38.84273844 -85.95802033 32.94084978 C-70.03983015 -6.5651034 -36.45617208 -1.88993162 0 0 Z M-54.36015427 33.57661676 C-55.51745551 35.58292858 -56.63459067 37.61298804 -57.70878708 39.66499567 C-58.85887548 41.40845784 -60.02751832 43.13984182 -61.21562302 44.85762262 C-62.37748341 46.62107745 -63.5365918 48.38634804 -64.69316208 50.15327692 C-65.31604111 51.10010843 -65.93892014 52.04693995 -66.58067429 53.02246332 C-68.54254741 56.00583873 -70.50076274 58.99159322 -72.45878708 61.97749567 C-73.78536053 63.99653981 -75.11218153 66.01542132 -76.43925583 68.0341363 C-78.30681441 70.87513914 -80.17402218 73.71636497 -82.03929245 76.55887079 C-82.5937706 77.40382608 -83.14824875 78.24878138 -83.71952927 79.11934137 C-84.20169907 79.85449472 -84.68386887 80.58964808 -85.18064988 81.3470788 C-87.01310534 84.12659323 -88.86026438 86.89614735 -90.70878708 89.66499567 C-80.80801285 89.92040203 -70.90802766 90.11557899 -61.00462449 90.23492956 C-56.40531294 90.2922289 -51.80826212 90.3698676 -47.21025193 90.49482965 C-42.76855065 90.61478151 -38.32901596 90.68020497 -33.88581955 90.70864534 C-32.19510386 90.72889729 -30.50450073 90.76845155 -28.8147136 90.82802629 C-19.35737972 91.36583153 -19.35737972 91.36583153 -11.08740342 87.51413202 C-8.98015056 84.66893351 -7.34339742 81.80278481 -5.70878708 78.66499567 C-4.55364127 76.91082013 -3.3796747 75.16887526 -2.18608201 73.44063044 C-1.01783166 71.66428877 0.14770771 69.88616167 1.31074417 68.10640192 C1.93599487 67.15482706 2.56124557 66.2032522 3.20544326 65.22284174 C5.17407501 62.22605214 7.13913901 59.22694666 9.10371292 56.22749567 C11.08663862 53.20338348 13.07034978 50.17979346 15.05554092 47.15716791 C16.28346356 45.28722691 17.51001644 43.41638553 18.7350148 41.54452753 C19.28956848 40.69942118 19.84412216 39.85431482 20.41548049 38.98359919 C21.14206611 37.87420732 21.14206611 37.87420732 21.88333023 36.74240351 C22.86151552 35.29903765 23.89591035 33.89283545 24.97094619 32.52008295 C26.48449382 30.77290942 26.48449382 30.77290942 26.29121292 28.66499567 C16.52083076 28.40957358 6.75124842 28.21440486 -3.02179825 28.09506178 C-7.56059175 28.03776554 -12.09709385 27.96013363 -16.63456833 27.83516169 C-21.01791789 27.71519709 -25.3990717 27.64978404 -29.78393662 27.621346 C-31.45232829 27.60109618 -33.12060606 27.56154591 -34.78805649 27.50196505 C-45.94931738 26.9564992 -45.94931738 26.9564992 -54.36015427 33.57661676 Z " fill="#4B4BFF" transform="translate(784.7087870836258,890.3350043296814)"/>
<path d="M0 0 C88.07270971 0 88.07270971 0 104.15234375 14.95703125 C109.91261526 21.32621095 113.95601534 28.66683177 116 37 C116.18175781 37.72445312 116.36351562 38.44890625 116.55078125 39.1953125 C118.95403234 54.19995843 116.97063357 68.92119315 108.62109375 81.7890625 C99.67753108 93.98678893 85.64850446 100.46819758 71 103 C67.93018869 103.23732877 64.88606943 103.235972 61.80859375 103.1953125 C61.07064575 103.19329834 60.33269775 103.19128418 59.5723877 103.18920898 C56.86069367 103.17887978 54.14908944 103.15095922 51.4375 103.125 C42.3109375 103.063125 42.3109375 103.063125 33 103 C33 117.52 33 132.04 33 147 C22.11 147 11.22 147 0 147 C0 98.49 0 49.98 0 0 Z M33 30 C33 44.52 33 59.04 33 74 C37.74375 74.061875 42.4875 74.12375 47.375 74.1875 C48.8501709 74.21481201 50.3253418 74.24212402 51.84521484 74.27026367 C60.51890329 74.32473045 69.17856925 74.16946593 76.375 68.75 C81.70985879 63.16110031 83.25295389 59.77033854 83.5 52.0625 C83.29177334 46.28727229 83.00909427 41.39674206 79 37 C71.74851956 31.43604789 65.78686857 29.86507461 56.73046875 29.90234375 C55.48418701 29.90484131 54.23790527 29.90733887 52.95385742 29.90991211 C51.38095947 29.91901611 49.80806152 29.92812012 48.1875 29.9375 C43.175625 29.958125 38.16375 29.97875 33 30 Z " fill="#FFFFFF" transform="translate(153,704)"/>
<path d="M0 0 C87.41885246 0 87.41885246 0 103.25 14.5 C114.12361034 25.99693832 117.52273177 39.70303433 117.2421875 55.1953125 C116.42282442 68.06724218 111.9351779 80.48099942 102.1796875 89.34765625 C86.20736616 101.4557063 69.99552866 103.64750897 50.5 103.25 C44.725 103.1675 38.95 103.085 33 103 C33 117.52 33 132.04 33 147 C22.11 147 11.22 147 0 147 C0 98.49 0 49.98 0 0 Z M33 30 C33 44.52 33 59.04 33 74 C40.1465625 74.0928125 40.1465625 74.0928125 47.4375 74.1875 C48.9217749 74.21481201 50.4060498 74.24212402 51.93530273 74.27026367 C59.18016754 74.31566307 65.35866223 74.03239473 72 71 C72.9075 70.5875 73.815 70.175 74.75 69.75 C78.71995105 66.66226029 81.41422206 62.75733382 83 58 C83.52697434 51.06826065 83.72110615 45.00178411 80 39 C75.54687548 33.90726681 70.60092572 31.34147845 64 30 C58.63415588 29.65030443 53.31502353 29.71691086 47.9375 29.8125 C43.008125 29.874375 38.07875 29.93625 33 30 Z " fill="#FFFFFF" transform="translate(585,704)"/>
</svg>
